<svg width="48" height="48" viewBox="0 0 48 48" fill="none" xmlns="http://www.w3.org/2000/svg">
<rect width="48" height="48" rx="8" fill="#EFF6FF"/>
<path d="M32.5 15.5879V37.3332H36.332H36.3338H36.3357H37.6672C38.0353 37.3332 38.3338 37.0347 38.3338 36.6666C38.3338 36.2984 38.0353 35.9999 37.6672 35.9999H37.0005V16.7805C37.0005 16.5 37.0005 15.5879 36 15.5879L32.5 15.5879Z" fill="#BFCEE1"/>
<path fill-rule="evenodd" clip-rule="evenodd" d="M31.667 12.2993C31.667 12 31.5 11.0001 30.0338 11.0001L14 11C13 11 12.9665 11.6783 12.9665 12.2992L13.0003 36.0001H12.3337C11.9655 36.0001 11.667 36.2986 11.667 36.6667C11.667 37.0349 11.9655 37.3334 12.3337 37.3334H13.6644H13.667H13.6696H19.667V33.3334C19.667 32.597 20.264 32.0001 21.0003 32.0001H23.667C24.4034 32.0001 25.0003 32.597 25.0003 33.3334V37.3334H30.9977H31.0003H31.003H31.667V12.2993ZM17.667 18.6667C17.2988 18.6667 17.0003 18.9652 17.0003 19.3334V20.6667C17.0003 21.0349 17.2988 21.3334 17.667 21.3334H19.0003C19.3685 21.3334 19.667 21.0349 19.667 20.6667V19.3334C19.667 18.9652 19.3685 18.6667 19.0003 18.6667H17.667ZM17.0003 23.3334C17.0003 22.9653 17.2988 22.6667 17.667 22.6667H19.0003C19.3685 22.6667 19.667 22.9653 19.667 23.3334V24.6667C19.667 25.0349 19.3685 25.3334 19.0003 25.3334H17.667C17.2988 25.3334 17.0003 25.0349 17.0003 24.6667V23.3334ZM17.667 26.6667C17.2988 26.6667 17.0003 26.9653 17.0003 27.3334V28.6667C17.0003 29.0349 17.2988 29.3334 17.667 29.3334H19.0003C19.3685 29.3334 19.667 29.0349 19.667 28.6667V27.3334C19.667 26.9653 19.3685 26.6667 19.0003 26.6667H17.667ZM21.0003 19.3334C21.0003 18.9652 21.2988 18.6667 21.667 18.6667H23.0003C23.3685 18.6667 23.667 18.9652 23.667 19.3334V20.6667C23.667 21.0349 23.3685 21.3334 23.0003 21.3334H21.667C21.2988 21.3334 21.0003 21.0349 21.0003 20.6667V19.3334ZM21.667 22.6667C21.2988 22.6667 21.0003 22.9653 21.0003 23.3334V24.6667C21.0003 25.0349 21.2988 25.3334 21.667 25.3334H23.0003C23.3685 25.3334 23.667 25.0349 23.667 24.6667V23.3334C23.667 22.9653 23.3685 22.6667 23.0003 22.6667H21.667ZM21.0003 27.3334C21.0003 26.9653 21.2988 26.6667 21.667 26.6667H23.0003C23.3685 26.6667 23.667 26.9653 23.667 27.3334V28.6667C23.667 29.0349 23.3685 29.3334 23.0003 29.3334H21.667C21.2988 29.3334 21.0003 29.0349 21.0003 28.6667V27.3334ZM25.667 18.6667C25.2989 18.6667 25.0003 18.9652 25.0003 19.3334V20.6667C25.0003 21.0349 25.2989 21.3334 25.667 21.3334H27.0003C27.3685 21.3334 27.667 21.0349 27.667 20.6667V19.3334C27.667 18.9652 27.3685 18.6667 27.0003 18.6667H25.667ZM25.0003 23.3334C25.0003 22.9653 25.2989 22.6667 25.667 22.6667H27.0003C27.3685 22.6667 27.667 22.9653 27.667 23.3334V24.6667C27.667 25.0349 27.3685 25.3334 27.0003 25.3334H25.667C25.2989 25.3334 25.0003 25.0349 25.0003 24.6667V23.3334ZM25.667 26.6667C25.2989 26.6667 25.0003 26.9653 25.0003 27.3334V28.6667C25.0003 29.0349 25.2989 29.3334 25.667 29.3334H27.0003C27.3685 29.3334 27.667 29.0349 27.667 28.6667V27.3334C27.667 26.9653 27.3685 26.6667 27.0003 26.6667H25.667Z" fill="#BFCEE1"/>
<path d="M23.6676 37.3335H21.001V33.8335C21.001 33.5574 21.2248 33.3335 21.501 33.3335H23.1676C23.4438 33.3335 23.6676 33.5574 23.6676 33.8335V37.3335Z" fill="#BFCEE1"/>
</svg>
